<?xml version="1.0" ?><svg xmlns="http://www.w3.org/2000/svg" xmlns:xlink="http://www.w3.org/1999/xlink" version="1.1" id="Layer_1" viewBox="0 0 32 32" style="enable-background:new 0 0 32 32;" xml:space="preserve"><style type="text/css">
	.st0{fill:none;stroke:#000000;stroke-linecap:round;stroke-linejoin:round;stroke-miterlimit:10;}
</style><g><g><path class="st0" d="M16.9,16h-5V9.6h5c1.8,0,3.2,1.4,3.2,3.2l0,0C20.1,14.6,18.7,16,16.9,16z"/><path class="st0" d="M16.9,22.4h-5V16h5c1.8,0,3.2,1.4,3.2,3.2l0,0C20.1,21,18.7,22.4,16.9,22.4z"/><g><line class="st0" x1="14.2" y1="9.6" x2="14.2" y2="7.3"/><line class="st0" x1="16.5" y1="9.6" x2="16.5" y2="7.3"/></g><g><line class="st0" x1="14.2" y1="24.7" x2="14.2" y2="22.4"/><line class="st0" x1="16.5" y1="24.7" x2="16.5" y2="22.4"/></g></g><g><circle class="st0" cx="16" cy="16" r="15"/><circle class="st0" cx="16" cy="16" r="11"/></g></g></svg>